# xmcd
#
# Track frame offsets: 
#        150
#        11472
#        25970
#        42217
#        55180
#        69042
#        79242
#        100340
#        108485
#        118565
#        130787
#        143440
#        157927
#        186227
#
# Disc length: 2606 seconds
#
# Revision: 1
# Processed by: cddbd v1.5.2PL0 Copyright (c) Steve Scherf et al.
# Submitted via: ExactAudioCopyFreeDBPlugin 1.0
#
DISCID=aa0a2c0e
DTITLE=Artistes Variés - Noel Country Volume 1
DYEAR=2007
DGENRE=Country
TTITLE0=Julie Daraiche - Le Petit Renne Au Nez Rouge
TTITLE1=Levis Bouliane - Un Orphelin À Noël
TTITLE2=Marie King - C`Est Noël
TTITLE3=Aldei Duguay - C`Est Noël Dans Le Pays
TTITLE4=Monsieur Pointu - Casa Loma Hornpipe
TTITLE5=Soldat Lebrun - Le Petit Noël Canadien
TTITLE6=André Breton - Les Anges Dans Nos Campagnes
TTITLE7=Larry Robichaud - Noël Est Arrivé
TTITLE8=Marthe Fleurant - La Ruine Babines
TTITLE9=Famille Marineau - Valse De Noël
TTITLE10=Aldei Duguay - Bonne Et Heureuse Année
TTITLE11=La Bolduc - Le Jour De L`An
TTITLE12=Ti-Blanc Richard - Paul Jones Des Fêtes
TTITLE13=Marcel Martel - Rock N`Roll Du Père Noël
EXTD=
EXTT0=
EXTT1=
EXTT2=
EXTT3=
EXTT4=
EXTT5=
EXTT6=
EXTT7=
EXTT8=
EXTT9=
EXTT10=
EXTT11=
EXTT12=
EXTT13=
PLAYORDER=
